<svg width="18" height="14" viewBox="0 0 18 14" fill="none" xmlns="http://www.w3.org/2000/svg">
<path d="M8.61816 13.333C8.41309 13.333 8.22168 13.292 8.04395 13.21C7.87077 13.1279 7.6862 12.9935 7.49023 12.8066L4.72168 10.209C4.68522 10.1771 4.63965 10.1611 4.58496 10.1611H2.68457C2.12402 10.1611 1.69336 10.0062 1.39258 9.69629C1.0918 9.38184 0.941406 8.92839 0.941406 8.33594V5.80664C0.941406 5.21875 1.0918 4.76986 1.39258 4.45996C1.69336 4.14551 2.12402 3.98828 2.68457 3.98828H4.5918C4.63737 3.98828 4.68294 3.97005 4.72852 3.93359L7.49023 1.35645C7.70443 1.16048 7.89355 1.01921 8.05762 0.932617C8.22624 0.846029 8.40853 0.802734 8.60449 0.802734C8.91895 0.802734 9.17871 0.909831 9.38379 1.12402C9.58887 1.33366 9.69141 1.59115 9.69141 1.89648V12.2666C9.69141 12.5674 9.58887 12.8203 9.38379 13.0254C9.17871 13.2305 8.9235 13.333 8.61816 13.333ZM12.1113 10.3115C11.9017 10.1748 11.7786 9.98796 11.7422 9.75098C11.7057 9.514 11.7741 9.25423 11.9473 8.97168C12.1159 8.70736 12.2458 8.41113 12.3369 8.08301C12.4326 7.75488 12.4805 7.41536 12.4805 7.06445C12.4805 6.70898 12.4349 6.36719 12.3438 6.03906C12.2526 5.71094 12.1204 5.41699 11.9473 5.15723C11.7695 4.87467 11.6989 4.61491 11.7354 4.37793C11.7764 4.13639 11.9017 3.94954 12.1113 3.81738C12.3073 3.69434 12.5124 3.65332 12.7266 3.69434C12.9408 3.73535 13.1117 3.84245 13.2393 4.01562C13.5355 4.42578 13.7656 4.8929 13.9297 5.41699C14.0983 5.94108 14.1826 6.49023 14.1826 7.06445C14.1826 7.63411 14.0983 8.18099 13.9297 8.70508C13.7656 9.22917 13.5355 9.69401 13.2393 10.0996C13.1117 10.2819 12.9408 10.3936 12.7266 10.4346C12.5124 10.471 12.3073 10.43 12.1113 10.3115ZM15.1943 12.2119C14.971 12.0798 14.8434 11.8929 14.8115 11.6514C14.7842 11.4098 14.8457 11.1683 14.9961 10.9268C15.3424 10.3844 15.6113 9.78288 15.8027 9.12207C15.9987 8.46126 16.0967 7.77539 16.0967 7.06445C16.0967 6.34896 16.001 5.66081 15.8096 5C15.6182 4.33919 15.347 3.73763 14.9961 3.19531C14.8457 2.95378 14.7842 2.71224 14.8115 2.4707C14.8434 2.22917 14.971 2.04232 15.1943 1.91016C15.3949 1.79167 15.6045 1.75521 15.8232 1.80078C16.042 1.84635 16.2174 1.9694 16.3496 2.16992C16.8099 2.8444 17.1631 3.60319 17.4092 4.44629C17.6598 5.28939 17.7852 6.16211 17.7852 7.06445C17.7852 7.9668 17.6598 8.83952 17.4092 9.68262C17.1631 10.5212 16.8099 11.2777 16.3496 11.9521C16.2174 12.1527 16.042 12.2757 15.8232 12.3213C15.6045 12.3669 15.3949 12.3304 15.1943 12.2119Z" fill="#858585"/>
</svg>
