<svg width="412" height="48" viewBox="0 0 412 48" fill="none" xmlns="http://www.w3.org/2000/svg">
<rect x="0.000183105" y="20" width="2" height="8" rx="1" fill="#171717"/>
<rect x="5.32508" y="18.1818" width="2" height="11.6364" rx="1" fill="#171717"/>
<rect x="10.6495" y="16" width="2" height="16" rx="1" fill="#171717"/>
<rect x="15.9744" y="16" width="2" height="16" rx="1" fill="#171717"/>
<rect x="21.2988" y="16" width="2" height="16" rx="1" fill="#171717"/>
<rect x="26.6237" width="2" height="48" rx="1" fill="#171717"/>
<rect x="31.9486" y="1.81824" width="2" height="44.3636" rx="1" fill="#171717"/>
<rect x="37.273" y="4" width="2" height="40" rx="1" fill="#171717"/>
<rect x="42.5984" y="12" width="2" height="24" rx="1" fill="#171717"/>
<rect x="47.922" y="14.9091" width="2" height="18.1818" rx="1" fill="#171717"/>
<rect x="53.2462" y="18.1818" width="2" height="11.6364" rx="1" fill="#171717"/>
<rect x="58.5726" y="13.8182" width="2" height="20.3636" rx="1" fill="#171717"/>
<rect x="63.8965" y="8" width="2" height="32" rx="1" fill="#171717"/>
<rect x="69.2209" y="12" width="2" height="24" rx="1" fill="#171717"/>
<rect x="74.546" y="12" width="2" height="24" rx="1" fill="#171717"/>
<rect x="79.8712" y="13.8182" width="2" height="20.3636" rx="1" fill="#171717"/>
<rect x="85.1956" y="12" width="2" height="24" rx="1" fill="#171717"/>
<rect x="90.5203" y="4" width="2" height="40" rx="1" fill="#171717"/>
<rect x="95.8444" y="13.8182" width="2" height="20.3636" rx="1" fill="#171717"/>
<rect x="101.169" y="4" width="2" height="40" rx="1" fill="#171717"/>
<rect x="106.493" y="13.8182" width="2" height="20.3636" rx="1" fill="#171717"/>
<rect x="111.818" y="4" width="2" height="40" rx="1" fill="#171717"/>
<rect x="117.143" y="1.81824" width="2" height="44.3636" rx="1" fill="#171717"/>
<rect x="122.468" y="13.8182" width="2" height="20.3636" rx="1" fill="#DBDBDB"/>
<rect x="127.792" y="12" width="2" height="24" rx="1" fill="#DBDBDB"/>
<rect x="133.117" y="4" width="2" height="40" rx="1" fill="#DBDBDB"/>
<rect x="138.442" y="12" width="2" height="24" rx="1" fill="#DBDBDB"/>
<rect x="143.766" y="4" width="2" height="40" rx="1" fill="#DBDBDB"/>
<rect x="149.091" y="12" width="2" height="24" rx="1" fill="#DBDBDB"/>
<rect x="154.416" y="4" width="2" height="40" rx="1" fill="#DBDBDB"/>
<rect x="159.741" y="1.81824" width="2" height="44.3636" rx="1" fill="#DBDBDB"/>
<rect x="165.065" y="4" width="2" height="40" rx="1" fill="#DBDBDB"/>
<rect x="170.39" y="12" width="2" height="24" rx="1" fill="#DBDBDB"/>
<rect x="175.715" y="4" width="2" height="40" rx="1" fill="#DBDBDB"/>
<rect x="181.039" y="1.81824" width="2" height="44.3636" rx="1" fill="#DBDBDB"/>
<rect x="186.364" y="8" width="2" height="32" rx="1" fill="#DBDBDB"/>
<rect x="191.689" width="2" height="48" rx="1" fill="#DBDBDB"/>
<rect x="197.014" y="4" width="2" height="40" rx="1" fill="#DBDBDB"/>
<rect x="202.339" y="1.81824" width="2" height="44.3636" rx="1" fill="#DBDBDB"/>
<rect x="207.663" y="8" width="2" height="32" rx="1" fill="#DBDBDB"/>
<rect x="212.988" y="12" width="2" height="24" rx="1" fill="#DBDBDB"/>
<rect x="218.312" y="13.8182" width="2" height="20.3636" rx="1" fill="#DBDBDB"/>
<rect x="223.637" y="18.1818" width="2" height="11.6364" rx="1" fill="#DBDBDB"/>
<rect x="228.962" y="18.1818" width="2" height="11.6364" rx="1" fill="#DBDBDB"/>
<rect x="234.286" y="18.1818" width="2" height="11.6364" rx="1" fill="#DBDBDB"/>
<rect x="239.611" y="13.8182" width="2" height="20.3636" rx="1" fill="#DBDBDB"/>
<rect x="244.936" y="13.8182" width="2" height="20.3636" rx="1" fill="#DBDBDB"/>
<rect x="250.26" width="2" height="48" rx="1" fill="#DBDBDB"/>
<rect x="255.586" y="13.8182" width="2" height="20.3636" rx="1" fill="#DBDBDB"/>
<rect x="260.91" y="8" width="2" height="32" rx="1" fill="#DBDBDB"/>
<rect x="266.233" y="1.81824" width="2" height="44.3636" rx="1" fill="#DBDBDB"/>
<rect x="271.56" y="18.1818" width="2" height="11.6364" rx="1" fill="#DBDBDB"/>
<rect x="276.883" y="18.1818" width="2" height="11.6364" rx="1" fill="#DBDBDB"/>
<rect x="282.208" y="20" width="2" height="8" rx="1" fill="#DBDBDB"/>
<rect x="287.533" y="20" width="2" height="8" rx="1" fill="#DBDBDB"/>
<rect x="292.858" y="20" width="2" height="8" rx="1" fill="#DBDBDB"/>
<rect x="298.182" y="18.1818" width="2" height="11.6364" rx="1" fill="#DBDBDB"/>
<rect x="303.507" y="12" width="2" height="24" rx="1" fill="#DBDBDB"/>
<rect x="308.831" y="8" width="2" height="32" rx="1" fill="#DBDBDB"/>
<rect x="314.156" y="4" width="2" height="40" rx="1" fill="#DBDBDB"/>
<rect x="319.48" y="4" width="2" height="40" rx="1" fill="#DBDBDB"/>
<rect x="324.805" y="12" width="2" height="24" rx="1" fill="#DBDBDB"/>
<rect x="330.13" y="4" width="2" height="40" rx="1" fill="#DBDBDB"/>
<rect x="335.455" y="13.8182" width="2" height="20.3636" rx="1" fill="#DBDBDB"/>
<rect x="340.779" y="4" width="2" height="40" rx="1" fill="#DBDBDB"/>
<rect x="346.103" width="2" height="48" rx="1" fill="#DBDBDB"/>
<rect x="351.429" y="4" width="2" height="40" rx="1" fill="#DBDBDB"/>
<rect x="356.754" y="1.81824" width="2" height="44.3636" rx="1" fill="#DBDBDB"/>
<rect x="362.078" y="13.8182" width="2" height="20.3636" rx="1" fill="#DBDBDB"/>
<rect x="367.402" y="8" width="2" height="32" rx="1" fill="#DBDBDB"/>
<rect x="372.727" y="12" width="2" height="24" rx="1" fill="#DBDBDB"/>
<rect x="378.052" y="1.81824" width="2" height="44.3636" rx="1" fill="#DBDBDB"/>
<rect x="383.377" y="4" width="2" height="40" rx="1" fill="#DBDBDB"/>
<rect x="388.701" y="1.81824" width="2" height="44.3636" rx="1" fill="#DBDBDB"/>
<rect x="394.026" y="12" width="2" height="24" rx="1" fill="#DBDBDB"/>
<rect x="399.351" y="1.81824" width="2" height="44.3636" rx="1" fill="#DBDBDB"/>
<rect x="404.676" y="18.1818" width="2" height="11.6364" rx="1" fill="#DBDBDB"/>
<rect x="410" y="20" width="2" height="8" rx="1" fill="#DBDBDB"/>
</svg>
